Coordinates
version=1
nRows=8
nColumns=36
inDegrees=yes

Units are S.I. units (second, meters, Newtons, ...)
If the header above contains a line with 'inDegrees', this indicates whether rotational values are in degrees (yes) or radians (no).

endheader
time	pelvis_tilt	pelvis_list	pelvis_rotation	pelvis_tx	pelvis_ty	pelvis_tz	hip_flexion_r	hip_adduction_r	hip_rotation_r	knee_angle_r	knee_angle_r_beta	ankle_angle_r	subtalar_angle_r	mtp_angle_r	hip_flexion_l	hip_adduction_l	hip_rotation_l	knee_angle_l	knee_angle_l_beta	ankle_angle_l	subtalar_angle_l	mtp_angle_l	lumbar_extension	lumbar_bending	lumbar_rotation	arm_flex_r	arm_add_r	arm_rot_r	elbow_flex_r	pro_sup_r	arm_flex_l	arm_add_l	arm_rot_l	elbow_flex_l	pro_sup_l
      7.01666670	     -2.87516000	     -0.84652267	     -2.91595582	      0.11333484	      1.18437626	      0.40159242	      5.67138603	      0.34470770	     -3.61316223	      4.41550687	      0.07706513	      3.10538671	    -15.40670880	     -7.49999987	      6.94896810	      2.03764254	      2.26213083	      6.87568534	      0.12000335	      8.20788396	     -4.88580266	     -7.49999987	      6.52935005	      0.82109559	     -1.13138609	     -2.05984256	     -4.13620139	      3.33757520	     27.85398102	     89.87496147	     -7.00728644	      0.59266486	    -10.23614539	     30.29846170	     86.75720617
      7.03333330	     -2.70476684	     -1.30889219	     -1.25935873	      0.11242356	      1.18717555	      0.40111425	      5.38621961	      0.71775770	     -4.09284483	      4.83651499	      0.08441311	      2.95681931	    -15.26379600	     -7.49999987	      6.33620559	      1.68517405	      4.17820921	      6.35242279	      0.11087069	      8.17015869	     -5.20997353	     -7.49999987	      6.78601620	      0.93277897	     -2.43778027	     -2.22048610	     -3.86852279	      3.07394895	     27.64451359	     89.89213729	     -6.85902121	      0.43928719	    -10.21299612	     29.83539127	     86.91280772
      7.05000000	     -2.83766220	     -1.01858324	     -2.49643320	      0.10778129	      1.18690474	      0.40472467	      5.23919211	      0.52159010	     -3.77902308	      4.12399797	      0.07197734	      3.50475472	    -15.16688381	     -7.49999987	      6.60387177	      1.89569822	      3.01911518	      6.75997577	      0.11798383	      8.21836956	     -5.50217543	     -7.49999987	      6.90575942	      0.74185514	     -1.87250512	     -2.02067785	     -3.88875737	      3.13860741	     27.66732004	     89.92337839	     -7.18615752	      0.55360360	    -10.28933088	     29.86387942	     86.91779463
      7.06666670	     -2.87298506	     -1.39321901	     -1.28799131	      0.10726749	      1.18645393	      0.40474843	      5.50337160	      0.91806413	     -3.71165696	      4.76619068	      0.08318572	      3.52510849	    -15.10848241	     -7.49999987	      6.34804439	      1.50727245	      4.21917111	      6.12466836	      0.10689563	      8.26573241	     -4.99632548	     -7.49999987	      7.23873528	      0.74989456	     -2.41794786	     -2.26057176	     -3.64331013	      3.11402675	     27.39798513	     88.97231861	     -6.91957070	      0.33438941	    -10.32110652	     29.73434814	     86.01389532
      7.08333330	     -2.94885145	     -1.10560655	     -2.29969065	      0.11319254	      1.18732264	      0.40093560	      5.18344233	      0.65204846	     -3.30542917	      4.05740933	      0.07081515	      4.00596637	    -14.93697525	     -7.49999987	      6.72710682	      1.78162661	      3.09602287	      6.66381569	      0.11630552	      8.36370673	     -5.14536809	     -7.49999987	      7.37367024	      0.58315975	     -1.84589876	     -2.19673841	     -3.71194659	      3.21214230	     27.29654499	     89.04328803	     -7.29105566	      0.49180245	    -10.40201332	     29.74487136	     86.04908665
      7.10000000	     -2.98406225	     -1.45801902	     -0.96436425	      0.10020210	      1.18571855	      0.40206706	      5.62129064	      0.95110939	     -3.52045175	      4.78183923	      0.08345884	      3.88831954	    -15.18743606	     -7.49999987	      6.78589100	      1.47600322	      4.30970162	      6.25201755	      0.10911829	      8.56998761	     -4.86538125	     -7.49999987	      7.55981056	      0.60874241	     -2.65544988	     -2.02486694	     -3.53315946	      3.26396708	     27.02733821	     89.19643852	     -6.71911226	      0.26572362	    -10.34509132	     29.44972336	     86.25770480
      7.11666670	     -3.05823758	     -1.14652599	     -1.85565191	      0.10747414	      1.18901367	      0.40394052	      5.46216811	      0.67534777	     -3.47292390	      4.12439367	      0.07198425	      4.11791174	    -15.14333938	     -7.49999987	      7.18781093	      1.73550473	      3.17725636	      6.66271348	      0.11628629	      8.28972391	     -5.02288212	     -7.49999987	      7.47079947	      0.44896417	     -2.23140757	     -1.82202705	     -3.59229224	      3.31848467	     27.01287803	     89.23696454	     -6.90225119	      0.39478382	    -10.39097231	     29.48617263	     86.27847463
      7.13333330	     -3.02263553	     -1.44095160	     -0.75645881	      0.10010813	      1.18512234	      0.40176550	      5.83521497	      0.93656637	     -3.74468422	      4.88971297	      0.08534159	      4.11555149	    -15.25597905	     -7.49999987	      7.12827718	      1.49442596	      4.18735346	      6.15785908	      0.10747492	      8.20858043	     -4.78466687	     -7.49999987	      7.27732067	      0.52891888	     -2.78628880	     -1.66118938	     -3.54037016	      3.90287301	     26.72878577	     87.57534016	     -6.40560504	      0.08782155	     -9.93509916	     29.56588871	     84.72822844
